<?xml version="1.0" standalone="no"?>
<!DOCTYPE svg PUBLIC "-//W3C//DTD SVG 20010904//EN"
 "http://www.w3.org/TR/2001/REC-SVG-20010904/DTD/svg10.dtd">
<svg version="1.0" xmlns="http://www.w3.org/2000/svg"
 width="300.000000pt" height="400.000000pt" viewBox="0 0 300.000000 400.000000"
 preserveAspectRatio="xMidYMid meet">

<g transform="translate(0.000000,400.000000) scale(0.100000,-0.100000)"
fill="#000000" stroke="none">
<path d="M0 3784 c0 -118 4 -213 9 -210 4 3 14 32 21 65 7 33 21 68 31 77 11
9 19 23 19 31 0 7 12 31 26 53 l27 40 -27 40 c-29 44 -33 65 -12 57 8 -3 42
-11 76 -18 63 -12 71 -10 83 25 1 5 36 3 77 -3 114 -19 112 -18 108 -59 -2
-26 1 -36 10 -34 6 1 12 -3 12 -9 0 -5 5 -7 10 -4 6 3 10 1 10 -5 0 -14 39 -7
84 16 19 9 61 14 125 13 128 0 187 -11 212 -37 11 -12 25 -22 32 -22 21 0 -16
-20 -61 -31 -23 -6 -44 -15 -47 -19 -2 -4 39 -20 93 -35 266 -76 521 -185 668
-286 42 -29 100 -80 129 -113 l54 -60 39 45 c118 134 471 201 975 184 l217 -7
0 197 c0 176 -2 196 -16 191 -9 -3 -18 -6 -20 -6 -3 0 -3 -4 0 -8 2 -4 -9 -8
-25 -7 -24 0 -28 3 -23 20 4 15 3 16 -4 6 -6 -8 -17 -11 -27 -8 -9 4 -13 3
-10 -2 3 -5 1 -12 -5 -16 -5 -3 -10 0 -10 7 0 9 -3 9 -10 -2 -7 -11 -10 -11
-10 -2 0 16 -61 13 -72 -3 -5 -6 -8 -5 -8 3 0 7 -5 10 -10 7 -5 -3 -10 -2 -10
4 0 5 6 12 13 14 7 3 5 6 -5 6 -10 1 -18 -6 -18 -14 0 -14 -4 -14 -27 -2 -20
10 -56 13 -123 10 -52 -2 -116 -4 -142 -4 -27 0 -48 -4 -48 -9 0 -4 -17 -8
-37 -8 -178 -2 -203 0 -198 9 2 3 -17 7 -43 8 -25 1 -51 6 -56 11 -6 6 -29 10
-53 10 -24 0 -43 5 -43 10 0 6 -10 10 -22 10 -12 0 -29 6 -37 14 -9 9 -43 16
-81 18 -45 2 -64 7 -62 16 1 8 -11 12 -37 12 -25 0 -41 5 -45 15 -5 13 -107
15 -841 15 l-835 0 0 -216z"/>
<path d="M2935 3870 c-3 -5 -1 -10 4 -10 6 0 11 5 11 10 0 6 -2 10 -4 10 -3 0
-8 -4 -11 -10z"/>
<path d="M333 3485 c-9 -39 -8 -45 6 -45 9 0 105 -20 215 -45 109 -24 203 -42
207 -39 5 3 9 1 9 -4 0 -5 21 -15 48 -21 170 -42 447 -143 596 -217 60 -30
110 -53 111 -52 1 2 7 19 14 37 9 28 9 38 -1 47 -24 23 -212 112 -333 157
-131 49 -396 127 -442 130 -15 1 -30 5 -33 9 -4 5 -359 88 -379 88 -4 0 -12
-20 -18 -45z m523 -95 c33 0 9 -35 -31 -44 -29 -7 -29 -7 -10 8 19 15 19 16
-7 6 -25 -8 -26 -8 -19 13 5 12 16 21 25 21 9 -1 16 3 17 10 0 7 2 7 6 -1 2
-7 11 -13 19 -13z m49 -19 c3 -6 14 -8 24 -6 28 5 56 -18 48 -40 -6 -13 -10
-15 -21 -6 -7 6 -16 7 -20 3 -4 -4 -14 2 -22 12 -8 11 -14 14 -14 7 0 -17 -25
-8 -26 10 -1 28 18 40 31 20z m125 -38 c0 -17 -19 -35 -29 -29 -18 12 -12 36
9 36 11 0 20 -3 20 -7z"/>
<path d="M1310 3110 c0 -5 5 -10 11 -10 5 0 7 5 4 10 -3 6 -8 10 -11 10 -2 0
-4 -4 -4 -10z"/>
<path d="M1380 3090 c0 -5 5 -10 11 -10 5 0 7 5 4 10 -3 6 -8 10 -11 10 -2 0
-4 -4 -4 -10z"/>
<path d="M1276 2634 c-5 -14 -4 -15 9 -4 17 14 19 20 6 20 -5 0 -12 -7 -15
-16z"/>
<path d="M2301 1124 c0 -11 3 -14 6 -6 3 7 2 16 -1 19 -3 4 -6 -2 -5 -13z"/>
<path d="M2176 1118 c3 -5 10 -6 15 -3 13 9 11 12 -6 12 -8 0 -12 -4 -9 -9z"/>
<path d="M2415 1100 c3 -5 8 -10 11 -10 2 0 4 5 4 10 0 6 -5 10 -11 10 -5 0
-7 -4 -4 -10z"/>
<path d="M2481 1094 c0 -11 3 -14 6 -6 3 7 2 16 -1 19 -3 4 -6 -2 -5 -13z"/>
<path d="M106 1074 c-36 -35 -31 -62 18 -107 45 -43 46 -45 40 -90 -5 -32 -3
-52 7 -64 7 -10 9 -15 5 -11 -12 10 -62 -21 -88 -55 -12 -16 -37 -35 -55 -42
-25 -11 -33 -20 -33 -40 0 -23 3 -25 27 -19 16 4 37 10 48 14 12 5 51 11 87
15 73 8 73 8 128 -71 27 -40 33 -43 236 -113 691 -240 1026 -350 1042 -342 29
15 110 31 155 31 49 0 124 19 187 48 l44 21 -26 10 c-14 5 -54 13 -87 17 -34
4 -63 10 -66 13 -2 4 20 24 48 45 45 33 59 39 99 37 39 -1 49 2 58 20 6 11 9
27 6 34 -3 8 -1 17 4 20 14 9 12 27 -2 23 -7 -3 -21 4 -32 14 -20 18 -76 38
-107 38 -25 0 -51 -35 -54 -76 -3 -26 -13 -45 -32 -62 -15 -14 -42 -38 -59
-54 l-31 -29 -114 11 c-248 23 -392 62 -468 127 -32 27 -41 42 -41 66 0 18 -4
27 -8 20 -34 -54 -237 -39 -402 30 -71 29 -206 102 -296 159 -40 26 -42 28
-37 70 4 37 1 49 -22 76 -28 33 -29 46 -10 138 10 44 -10 77 -40 70 -14 -4
-27 0 -35 9 -16 20 -74 19 -94 -1z m124 -153 c0 -25 -3 -32 -11 -24 -13 13
-30 84 -22 96 10 16 32 -35 33 -72z m277 -387 c-3 -3 -12 -4 -19 -1 -8 3 -5 6
6 6 11 1 17 -2 13 -5z"/>
<path d="M2541 1073 c-1 -17 16 -25 25 -12 4 7 3 9 -4 5 -5 -3 -13 0 -15 6 -4
9 -6 10 -6 1z"/>
<path d="M2629 1078 c-5 -18 -6 -38 -1 -34 7 8 12 36 6 36 -2 0 -4 -1 -5 -2z"/>
<path d="M2400 652 c0 -5 7 -16 16 -23 15 -12 14 -15 -5 -30 -11 -9 -22 -29
-25 -43 -4 -21 0 -29 19 -36 30 -11 41 -30 24 -41 -11 -7 -9 -9 6 -10 11 0 14
-3 8 -6 -18 -7 -16 -21 5 -26 15 -4 15 -5 -2 -6 -16 -1 -17 -3 -5 -18 12 -16
12 -17 -2 -5 -9 7 -25 9 -34 5 -11 -4 -16 -3 -12 4 8 12 -74 6 -87 -7 -9 -9
26 -22 67 -24 29 -1 50 -23 40 -40 -3 -5 -1 -6 5 -2 7 4 12 2 12 -5 0 -7 3 -9
6 -6 4 4 2 13 -4 20 -9 10 -8 14 2 14 16 0 14 -29 -7 -99 -8 -27 -12 -48 -9
-48 4 0 0 -5 -8 -10 -13 -8 -12 -10 4 -10 11 0 17 -3 14 -6 -4 -3 -73 4 -155
15 -175 23 -274 33 -253 24 8 -3 21 -12 28 -20 7 -7 22 -13 33 -13 11 0 17 -5
14 -10 -3 -6 4 -10 17 -11 l23 0 -22 -9 c-13 -5 -23 -15 -23 -22 0 -9 3 -9 10
2 9 14 10 13 10 -17 0 -5 -6 -8 -12 -8 -7 0 -13 -6 -12 -12 3 -35 4 -38 14
-23 8 11 9 8 4 -12 -4 -18 -2 -28 5 -28 6 0 17 -11 23 -25 l11 -25 429 0 428
0 -1 268 c-1 147 -4 256 -8 242 -5 -17 -9 -21 -15 -12 -4 6 -17 12 -29 12 -12
1 -40 9 -62 20 -22 11 -46 19 -53 20 -7 0 -10 5 -7 10 3 6 0 10 -7 10 -8 0
-28 14 -46 30 -18 17 -36 30 -39 30 -3 0 -11 8 -18 17 -11 15 -19 16 -76 5
-63 -12 -208 -10 -229 3 -5 3 -10 2 -10 -3z"/>
<path d="M2010 451 c0 -6 9 -9 20 -8 11 1 20 5 20 9 0 4 -9 8 -20 8 -11 0 -20
-4 -20 -9z"/>
<path d="M2066 452 c-3 -6 -1 -14 5 -17 14 -9 20 -2 10 14 -6 8 -11 9 -15 3z"/>
<path d="M2110 440 c0 -5 7 -10 15 -10 8 0 15 5 15 10 0 6 -7 10 -15 10 -8 0
-15 -4 -15 -10z"/>
<path d="M2150 436 c0 -7 6 -13 13 -14 6 0 23 -3 37 -7 58 -14 80 -14 80 0 0
8 -3 15 -7 16 -5 0 -28 2 -52 4 -25 3 -51 7 -58 9 -7 3 -13 0 -13 -8z"/>
</g>
</svg>
